<mxfile host="app.diagrams.net" agent="Mozilla/5.0 (Macintosh; Intel Mac OS X 10_15_7) AppleWebKit/537.36 (KHTML, like Gecko) Chrome/141.0.0.0 Safari/537.36" version="28.2.5">
  <diagram name="Page-1" id="K_qmYq0cGLy64DVly3dJ">
    <mxGraphModel dx="976" dy="569" grid="1" gridSize="10" guides="1" tooltips="1" connect="1" arrows="1" fold="1" page="1" pageScale="1" pageWidth="850" pageHeight="1100" math="0" shadow="0">
      <root>
        <mxCell id="0" />
        <mxCell id="1" parent="0" />
        <mxCell id="sOONC6FhBLauTAYNPm2W-6" style="edgeStyle=orthogonalEdgeStyle;rounded=0;orthogonalLoop=1;jettySize=auto;html=1;exitX=1;exitY=0.5;exitDx=0;exitDy=0;" edge="1" parent="1" source="sOONC6FhBLauTAYNPm2W-1" target="sOONC6FhBLauTAYNPm2W-2">
          <mxGeometry relative="1" as="geometry" />
        </mxCell>
        <mxCell id="sOONC6FhBLauTAYNPm2W-1" value="Triggering service" style="rounded=1;whiteSpace=wrap;html=1;" vertex="1" parent="1">
          <mxGeometry x="200" y="160" width="80" height="40" as="geometry" />
        </mxCell>
        <mxCell id="sOONC6FhBLauTAYNPm2W-7" style="edgeStyle=orthogonalEdgeStyle;rounded=0;orthogonalLoop=1;jettySize=auto;html=1;exitX=1;exitY=0.5;exitDx=0;exitDy=0;" edge="1" parent="1" source="sOONC6FhBLauTAYNPm2W-2" target="sOONC6FhBLauTAYNPm2W-3">
          <mxGeometry relative="1" as="geometry" />
        </mxCell>
        <mxCell id="sOONC6FhBLauTAYNPm2W-8" style="edgeStyle=orthogonalEdgeStyle;rounded=0;orthogonalLoop=1;jettySize=auto;html=1;exitX=0.5;exitY=0;exitDx=0;exitDy=0;entryX=0.5;entryY=1;entryDx=0;entryDy=0;" edge="1" parent="1" source="sOONC6FhBLauTAYNPm2W-2" target="sOONC6FhBLauTAYNPm2W-5">
          <mxGeometry relative="1" as="geometry" />
        </mxCell>
        <mxCell id="sOONC6FhBLauTAYNPm2W-10" style="edgeStyle=orthogonalEdgeStyle;rounded=0;orthogonalLoop=1;jettySize=auto;html=1;exitX=0.5;exitY=1;exitDx=0;exitDy=0;entryX=0.5;entryY=0;entryDx=0;entryDy=0;" edge="1" parent="1" source="sOONC6FhBLauTAYNPm2W-2" target="sOONC6FhBLauTAYNPm2W-4">
          <mxGeometry relative="1" as="geometry" />
        </mxCell>
        <mxCell id="sOONC6FhBLauTAYNPm2W-2" value="Phase generator" style="rounded=1;whiteSpace=wrap;html=1;" vertex="1" parent="1">
          <mxGeometry x="360" y="160" width="80" height="40" as="geometry" />
        </mxCell>
        <mxCell id="sOONC6FhBLauTAYNPm2W-13" style="edgeStyle=orthogonalEdgeStyle;rounded=0;orthogonalLoop=1;jettySize=auto;html=1;exitX=1;exitY=0.5;exitDx=0;exitDy=0;" edge="1" parent="1" source="sOONC6FhBLauTAYNPm2W-3" target="sOONC6FhBLauTAYNPm2W-12">
          <mxGeometry relative="1" as="geometry" />
        </mxCell>
        <mxCell id="sOONC6FhBLauTAYNPm2W-3" value="Post-processing" style="rounded=1;whiteSpace=wrap;html=1;" vertex="1" parent="1">
          <mxGeometry x="520" y="160" width="80" height="40" as="geometry" />
        </mxCell>
        <mxCell id="sOONC6FhBLauTAYNPm2W-11" style="edgeStyle=orthogonalEdgeStyle;rounded=0;orthogonalLoop=1;jettySize=auto;html=1;exitX=0.5;exitY=0;exitDx=0;exitDy=0;entryX=0.5;entryY=1;entryDx=0;entryDy=0;" edge="1" parent="1" source="sOONC6FhBLauTAYNPm2W-4" target="sOONC6FhBLauTAYNPm2W-2">
          <mxGeometry relative="1" as="geometry" />
        </mxCell>
        <mxCell id="sOONC6FhBLauTAYNPm2W-4" value="Model" style="rounded=1;whiteSpace=wrap;html=1;" vertex="1" parent="1">
          <mxGeometry x="360" y="280" width="80" height="40" as="geometry" />
        </mxCell>
        <mxCell id="sOONC6FhBLauTAYNPm2W-9" style="edgeStyle=orthogonalEdgeStyle;rounded=0;orthogonalLoop=1;jettySize=auto;html=1;exitX=0.5;exitY=1;exitDx=0;exitDy=0;" edge="1" parent="1" source="sOONC6FhBLauTAYNPm2W-5" target="sOONC6FhBLauTAYNPm2W-2">
          <mxGeometry relative="1" as="geometry" />
        </mxCell>
        <mxCell id="sOONC6FhBLauTAYNPm2W-5" value="Filtering" style="rounded=1;whiteSpace=wrap;html=1;" vertex="1" parent="1">
          <mxGeometry x="360" y="40" width="80" height="40" as="geometry" />
        </mxCell>
        <mxCell id="sOONC6FhBLauTAYNPm2W-12" value="Sugesstion" style="rounded=1;whiteSpace=wrap;html=1;" vertex="1" parent="1">
          <mxGeometry x="680" y="160" width="80" height="40" as="geometry" />
        </mxCell>
        <mxCell id="sOONC6FhBLauTAYNPm2W-15" style="edgeStyle=orthogonalEdgeStyle;rounded=0;orthogonalLoop=1;jettySize=auto;html=1;exitX=1;exitY=0.5;exitDx=0;exitDy=0;" edge="1" parent="1" source="sOONC6FhBLauTAYNPm2W-14" target="sOONC6FhBLauTAYNPm2W-1">
          <mxGeometry relative="1" as="geometry" />
        </mxCell>
        <mxCell id="sOONC6FhBLauTAYNPm2W-14" value="User inputs" style="rounded=1;whiteSpace=wrap;html=1;" vertex="1" parent="1">
          <mxGeometry x="40" y="160" width="80" height="40" as="geometry" />
        </mxCell>
      </root>
    </mxGraphModel>
  </diagram>
</mxfile>
